PathFileType	4	(x/y/z)	S09_P20_T26
DataRate	CameraRate	NumFrames	NumMarkers	Units	OrigDataRate	OrigDataStartFrame	OrigNumFrames
240	240	7	51	mm	240	198	394
Frame#	Time	Sternum			R.Acromium			L.Acromium			Top.Head			R.ASIS			L.ASIS			R.PSIS			L.PSIS			R.Great.Tro			L.Great.Tro			R.Iliac.Crest			L.Iliac.Crest			V.Sacral			R.Thigh.Upper.Post			R.Thigh.Lower.Ant			R.Thigh.Lower.Post			R.Thigh.Upper.Ant			R.Knee.Lat			R.Knee.Med			R.Shank.Upper.Post			R.Shank.Lower.Ant			R.Shank.Lower.Post			R.Shank.Upper.Ant			R.Ankle.Lat			R.Ankle.Med			R.Heel.Upper			R.Heel.Med			R.Heel.Lat			R.Toe.Lat			R.Toe.Med			R.Toe.Tip			L.Thigh.Upper.Post			L.Thigh.Lower.Ant			L.Thigh.Lower.Post			L.Thigh.Upper.Ant			L.Knee.Lat			L.Knee.Med			L.Shank.Upper.Post			L.Shank.Lower.Ant			L.Shank.Lower.Post			L.Shank.Upper.Ant			L.Ankle.Lat			L.Ankle.Med			L.Heel.Upper			L.Heel.Med			L.Heel.Lat			L.Toe.Lat			L.Toe.Med			L.Toe.Tip			Cervical.Spine			Back			
		X1	Y1	Z1	X2	Y2	Z2	X3	Y3	Z3	X4	Y4	Z4	X5	Y5	Z5	X6	Y6	Z6	X7	Y7	Z7	X8	Y8	Z8	X9	Y9	Z9	X10	Y10	Z10	X11	Y11	Z11	X12	Y12	Z12	X13	Y13	Z13	X14	Y14	Z14	X15	Y15	Z15	X16	Y16	Z16	X17	Y17	Z17	X18	Y18	Z18	X19	Y19	Z19	X20	Y20	Z20	X21	Y21	Z21	X22	Y22	Z22	X23	Y23	Z23	X24	Y24	Z24	X25	Y25	Z25	X26	Y26	Z26	X27	Y27	Z27	X28	Y28	Z28	X29	Y29	Z29	X30	Y30	Z30	X31	Y31	Z31	X32	Y32	Z32	X33	Y33	Z33	X34	Y34	Z34	X35	Y35	Z35	X36	Y36	Z36	X37	Y37	Z37	X38	Y38	Z38	X39	Y39	Z39	X40	Y40	Z40	X41	Y41	Z41	X42	Y42	Z42	X43	Y43	Z43	X44	Y44	Z44	X45	Y45	Z45	X46	Y46	Z46	X47	Y47	Z47	X48	Y48	Z48	X49	Y49	Z49	X50	Y50	Z50	X51	Y51	Z51	

198	0.82083	-227.37	1199.5	318.54	-354.17	1450.9	466.11	-359.2	1444.9	155.65	-361.77	1753.1	301.41	-283.46	1031.6	424.73	-295.68	1037.9	180.12	-506.49	1051.3	355.29	-506.21	1050.4	265.53	-365.21	943.64	495.91	-360.81	948.48	108.99	-368.7	1108.6	471.1	-402.69	1128.2	150.84	-524.75	1015.5	307.75	-372.91	696.19	461.94	-311.17	593.18	409.34	-388.5	606.09	425.3	-307.32	678.34	442.63	-341.03	518.24	396.54	-352.56	517.27	275.63	-439.87	353.61	398.68	-382.54	284.58	382.15	-454.27	279.38	384.83	-374.65	357	397.08	-459.78	95.641	357.4	-432.69	106.2	271.65	-525.89	82.006	306.39	-517.06	48.883	278.83	-524.46	52.827	343.4	-365.69	40.009	397.15	-316.81	41.488	289.72	-269.17	55.37	336.98	-324.18	687.3	135.5	-216.34	626.4	115.66	-277.3	609.42	143.35	-260.62	702.49	103.34	-213.1	545.26	123.55	-167.26	553.98	251.56	-292.22	435.43	122.57	-256.64	330.87	123.7	-313.17	361.58	129.65	-235.9	405.55	117.66	-351.46	165.77	150.4	-316.08	153.57	237.6	-418.7	146.75	218.51	-406.14	118.29	247.86	-430.31	121.12	191.12	-281.71	68.231	102.11	-224.59	57.916	198.13	-183.47	60.777	130.98	-441.76	1498.8	322.22	-491.2	1233.5	312.44
199	0.825	-222.16	1199.5	318.73	-348.73	1451.1	466.06	-353.85	1444.8	155.65	-356.33	1753	301.31	-278.71	1031.4	424.89	-290.27	1037.9	180.25	-501.51	1051.3	354.74	-501.06	1050.5	264.99	-360.82	943.59	495.78	-355.07	948.67	108.85	-364.04	1108.6	470.92	-397.1	1128.3	150.66	-519.64	1015.5	307.13	-370.78	695.95	460.43	-308.77	592.94	409.26	-385.99	606.29	425.12	-304.53	678.16	442.37	-339.08	518.06	396.53	-350.48	517.12	275.51	-438.67	353.86	398.5	-381.64	284.64	382.1	-453.36	279.69	384.66	-373.48	357.02	397	-459.55	95.888	357.23	-432.24	106.37	271.53	-525.76	82.163	306.17	-516.89	48.997	278.72	-524.36	53.059	343.24	-365.64	39.984	397.09	-316.71	41.391	289.74	-269.03	55.119	337.05	-318.69	687.33	135.78	-210.64	626.42	116.57	-271.78	609.46	143.98	-255.01	702.48	103.87	-207.25	545.14	124.58	-162.02	554.36	252.59	-284.05	433.16	123.42	-245.63	329.64	123.88	-302.95	358.75	130.11	-226.97	404.85	118.22	-335.66	161.69	149.84	-299.67	150.16	236.87	-402.16	140.42	218.03	-388.57	112.19	247.22	-413.05	114.43	190.56	-263.21	66.544	100.86	-205.41	57.689	196.63	-164.67	62.068	129.31	-436.37	1498.8	322.19	-485.94	1233.6	312.42
200	0.82917	-216.93	1199.5	318.92	-343.29	1451.2	466.02	-348.49	1444.7	155.65	-350.87	1753	301.21	-273.95	1031.3	425.02	-284.83	1037.9	180.36	-496.52	1051.3	354.18	-495.89	1050.6	264.45	-356.41	943.51	495.63	-349.36	948.79	108.71	-359.36	1108.5	470.74	-391.48	1128.3	150.46	-514.52	1015.6	306.5	-368.53	695.76	459.07	-306.36	592.7	409.16	-383.46	606.48	424.92	-301.72	677.96	442.1	-337.11	517.89	396.5	-348.36	516.97	275.39	-437.46	354.12	398.31	-380.72	284.7	382.03	-452.43	280.01	384.47	-372.3	357.05	396.91	-459.32	96.139	357.06	-431.8	106.55	271.4	-525.61	82.326	305.94	-516.7	49.118	278.6	-524.26	53.298	343.08	-365.59	39.959	397.02	-316.62	41.292	289.77	-268.88	54.869	337.11	-313.34	687.26	136.13	-205.11	626.3	117.54	-266.43	609.39	144.68	-249.54	702.36	104.44	-201.59	544.9	125.64	-156.97	554.6	253.68	-275.95	430.82	124.3	-234.67	328.44	124.1	-292.73	355.9	130.62	-218.14	404.13	118.81	-319.75	157.73	149.3	-283.13	146.91	236.15	-385.36	134.23	217.6	-370.75	106.29	246.63	-395.56	107.92	190.06	-244.7	65.044	99.62	-186.22	57.696	195.12	-145.95	63.556	127.62	-430.99	1498.7	322.15	-480.67	1233.6	312.38
201	0.83333	-211.68	1199.5	319.1	-337.85	1451.2	465.97	-343.14	1444.5	155.64	-345.42	1752.9	301.09	-269.16	1031.1	425.12	-279.37	1037.9	180.43	-491.51	1051.3	353.61	-490.69	1050.6	263.91	-351.98	943.41	495.46	-343.67	948.83	108.57	-354.65	1108.4	470.54	-385.84	1128.3	150.26	-509.39	1015.6	305.88	-366.16	695.59	457.86	-303.94	592.45	409.03	-380.91	606.66	424.72	-298.89	677.75	441.81	-335.12	517.71	396.46	-346.22	516.81	275.27	-436.22	354.39	398.12	-379.78	284.76	381.96	-451.49	280.34	384.28	-371.09	357.08	396.83	-459.08	96.392	356.88	-431.34	106.72	271.27	-525.46	82.497	305.71	-516.5	49.248	278.48	-524.15	53.546	342.91	-365.54	39.933	396.95	-316.54	41.191	289.78	-268.73	54.619	337.18	-308.13	687.11	136.53	-199.75	626.04	118.54	-261.24	609.22	145.43	-244.2	702.11	105.06	-196.1	544.55	126.74	-152.09	554.71	254.81	-267.91	428.41	125.21	-223.77	327.27	124.34	-282.54	353.03	131.15	-209.42	403.39	119.42	-303.73	153.9	148.8	-266.47	143.82	235.44	-368.32	128.22	217.22	-352.72	100.62	246.1	-377.86	101.6	189.62	-226.2	63.75	98.41	-167.04	57.957	193.62	-127.32	65.261	125.92	-425.61	1498.6	322.1	-475.38	1233.6	312.33
202	0.8375	-206.41	1199.4	319.27	-332.41	1451.2	465.92	-337.79	1444.3	155.62	-339.96	1752.7	300.97	-264.35	1030.9	425.18	-273.89	1037.8	180.46	-486.47	1051.3	353.05	-485.47	1050.6	263.37	-347.53	943.29	495.27	-338	948.8	108.42	-349.91	1108.3	470.33	-380.16	1128.2	150.03	-504.23	1015.6	305.26	-363.68	695.46	456.8	-301.49	592.19	408.89	-378.33	606.82	424.51	-296.04	677.53	441.53	-333.1	517.52	396.42	-344.03	516.64	275.14	-434.97	354.66	397.92	-378.83	284.82	381.87	-450.54	280.67	384.08	-369.86	357.11	396.74	-458.84	96.65	356.7	-430.88	106.91	271.13	-525.29	82.68	305.47	-516.3	49.391	278.36	-524.04	53.804	342.74	-365.48	39.909	396.88	-316.45	41.088	289.8	-268.57	54.367	337.24	-303.05	686.86	136.98	-194.55	625.65	119.59	-256.22	608.94	146.24	-239	701.74	105.72	-190.78	544.1	127.86	-147.39	554.68	255.99	-259.94	425.94	126.14	-212.93	326.14	124.61	-272.38	350.16	131.72	-200.79	402.62	120.05	-287.62	150.23	148.34	-249.71	140.94	234.77	-351.06	122.4	216.9	-334.49	95.188	245.63	-359.98	95.488	189.25	-207.7	62.681	97.238	-147.89	58.491	192.15	-108.79	67.201	124.24	-420.23	1498.5	322.05	-470.08	1233.6	312.26
203	0.84167	-201.12	1199.3	319.42	-326.98	1451.2	465.87	-332.44	1444.1	155.6	-334.49	1752.6	300.85	-259.52	1030.6	425.21	-268.39	1037.6	180.47	-481.42	1051.3	352.48	-480.22	1050.6	262.83	-343.07	943.15	495.08	-332.35	948.69	108.28	-345.13	1108.1	470.11	-374.46	1128.1	149.8	-499.07	1015.7	304.65	-361.08	695.36	455.87	-299.02	591.92	408.74	-375.73	606.97	424.29	-293.16	677.29	441.25	-331.05	517.34	396.37	-341.81	516.46	275.02	-433.7	354.93	397.71	-377.85	284.88	381.78	-449.57	281.01	383.88	-368.6	357.13	396.65	-458.58	96.914	356.51	-430.42	107.09	270.99	-525.11	82.876	305.23	-516.09	49.546	278.23	-523.93	54.075	342.56	-365.43	39.886	396.8	-316.35	40.982	289.82	-268.42	54.115	337.3	-298.1	686.53	137.47	-189.52	625.12	120.66	-251.35	608.54	147.09	-233.92	701.26	106.41	-185.64	543.53	129	-142.85	554.51	257.22	-252.03	423.42	127.1	-202.16	325.05	124.91	-262.24	347.31	132.32	-192.26	401.84	120.7	-271.44	146.72	147.92	-232.89	138.27	234.13	-333.6	116.79	216.64	-316.1	90.021	245.22	-341.92	89.611	188.94	-189.22	61.858	96.117	-128.78	59.314	190.72	-90.377	69.394	122.58	-414.85	1498.4	321.99	-464.76	1233.5	312.17
204	0.84583	-195.82	1199.1	319.56	-321.54	1451.1	465.81	-327.1	1443.9	155.57	-329.02	1752.4	300.71	-254.66	1030.3	425.21	-262.86	1037.4	180.44	-476.34	1051.3	351.91	-474.94	1050.6	262.29	-338.58	942.99	494.87	-326.72	948.5	108.14	-340.3	1107.9	469.89	-368.73	1127.9	149.55	-493.88	1015.7	304.03	-358.37	695.29	455.08	-296.52	591.65	408.58	-373.1	607.11	424.06	-290.25	677.03	440.98	-328.96	517.15	396.31	-339.54	516.28	274.9	-432.4	355.21	397.5	-376.84	284.93	381.67	-448.6	281.36	383.67	-367.32	357.15	396.56	-458.32	97.183	356.32	-429.96	107.29	270.85	-524.93	83.088	304.98	-515.87	49.716	278.08	-523.81	54.359	342.36	-365.38	39.866	396.73	-316.25	40.873	289.83	-268.26	53.86	337.37	-293.29	686.1	138.01	-184.65	624.46	121.75	-246.64	608.04	147.99	-228.98	700.65	107.14	-180.65	542.85	130.16	-138.49	554.2	258.5	-244.17	420.87	128.06	-191.47	324.02	125.24	-252.14	344.47	132.95	-183.84	401.06	121.37	-255.2	143.42	147.54	-216.02	135.85	233.54	-315.98	111.4	216.44	-297.57	85.135	244.87	-323.72	83.988	188.69	-170.77	61.296	95.062	-109.75	60.442	189.35	-72.09	71.857	121	-409.48	1498.2	321.93	-459.44	1233.3	312.07
